<svg width="122" height="100" viewBox="0 0 122 100" fill="none" xmlns="http://www.w3.org/2000/svg">
<path d="M68.1307 31.0087C68.4447 31.8581 68.9524 32.2389 70.2003 33.0618C69.3335 32.9219 65.8843 31.53 65.2093 29.6327C64.9596 28.9306 65.0222 28.1692 65.1785 27.7874C65.9018 26.0204 67.0102 26.0269 77.073 26.2245C74.58 26.6749 72.6341 26.9222 72.8285 28.1385C72.9813 29.0946 73.086 29.2722 98.7598 27.9534C99.8969 27.895 101.465 27.2141 102.18 26.5211C102.755 27.9592 103.894 29.6589 104.811 31.0199C106.067 32.8839 106.365 33.4581 104.35 33.6798C103.015 33.8266 98.9806 34.1662 98.003 35.1403C101.25 35.1853 104.364 34.7663 109.771 36.8898C77.9735 40.6567 44.0757 41.89 12.2287 44.9009C12.1593 44.6253 18.5178 42.0557 21.3998 41.0123C21.5053 39.2104 20.165 39.4945 18.8965 39.7944C18.8461 38.9371 16.8271 29.5891 21.0912 25.1789C20.0763 27.5199 19.6237 28.606 19.698 30.8628C20.2882 29.4283 21.0985 25.9743 23.9603 26.4384C27.5075 27.0136 28.6647 34.0706 29.2428 37.524C34.9786 35.3046 36.161 35.2465 50.1064 34.4744C49.6641 32.8839 49.5063 30.4767 49.6222 28.822C49.7513 26.9799 50.1448 25.6689 50.8383 23.8734C51.4331 22.3335 52.8227 20.9523 54.6909 20.8685C56.3586 20.7938 58.4421 22.0781 59.1535 24.6888C55.217 22.0643 51.9478 23.847 51.208 28.7987C50.8612 31.1202 50.9625 33.2813 52.243 35.3686C53.2056 36.9375 54.6638 37.9124 56.6127 37.6502C60.4532 37.1335 61.2102 32.8832 61.292 30.3416C61.8669 32.8318 62.0505 34.6326 65.7779 34.4019C72.9442 33.958 79.1489 33.5717 86.3148 33.1219C87.133 33.0705 97.8559 32.412 103.265 31.7058C102.646 30.5888 101.387 29.5539 100.098 29.6467C71.6732 31.6924 72.4878 31.4049 68.1307 31.0087ZM21.7076 29.406C20.2812 33.0383 20.6299 36.6348 22.4696 40.0219C22.8047 40.6387 23.818 41.3218 24.4066 41.2302C26.1729 40.955 26.6629 38.6982 26.9019 37.2172C28.0365 30.1853 23.43 25.0201 21.7076 29.406Z" fill="white"/>
<path d="M44.0492 10.1801C49.7948 9.79711 57.3867 9.37062 62.5298 9.32875C66.0442 9.30006 71.9853 11.405 75.8456 13.8152C69.2827 14.6572 56.2692 15.7617 49.4026 16.2026C48.1094 16.3515 46.6774 14.0384 45.8828 12.8315C45.1309 11.6894 44.4379 10.5762 44.0492 10.1801Z" fill="white"/>
<path d="M90.5833 23.9644C90.8626 25.0596 91.119 26.2949 91.1694 27.5247C89.8981 27.5864 88.5879 27.6608 87.2855 27.709C87.1944 27.0662 86.9185 24.7395 86.7966 24.1988C84.6332 24.2146 80.9092 24.3174 79.0774 24.3337C76.2815 24.3589 76.2977 24.1694 77.7099 21.726C78.9017 19.6636 80.7004 19.0381 83.0536 19.1178C87.4403 19.2663 91.8377 19.1414 96.2294 19.057C97.6232 19.0301 98.3687 19.7338 98.9285 20.8934C100.149 23.8934 99.7469 23.7601 97.7116 23.826C96.6926 23.8592 95.9332 23.8779 95.0729 23.8779C95.5886 25.0426 95.6218 26.0045 95.7787 27.3184C94.5169 27.4051 93.3836 27.4558 92.4441 27.5147C92.4458 27.5447 92.2707 25.0875 91.831 23.9407C91.3383 23.9429 91.1702 23.9434 90.5833 23.9644Z" fill="white"/>
<path d="M29.2358 19.5438C29.3579 18.6255 29.4649 17.5613 30.3719 16.3795C31.2789 15.1978 36.0209 12.2357 39.6376 11.1668C41.2542 10.6893 42.8981 10.8141 43.906 12.2337C44.8687 13.5895 46.0829 15.7704 46.9889 17.1678C44.3448 17.8177 33.013 19.3515 29.2358 19.5438Z" fill="white"/>
<path d="M60.4197 19.7225C65.3966 19.551 68.348 19.3168 75.5944 19.0692C74.4352 20.8886 73.6406 22.4244 71.4001 22.5634C69.1596 22.7023 67.0734 22.6875 64.9483 22.5632C63.2321 22.4628 60.3524 19.9268 60.4197 19.7225Z" fill="white"/>
<path d="M27.8315 23.566C33.6279 22.8699 45.8962 21.4889 45.9345 21.6677C42.1231 23.0829 35.165 24.9119 32.5255 25.3249C29.8861 25.7378 29.1455 25.2988 27.8315 23.566Z" fill="white"/>
<path d="M36.5886 32.5838C38.8271 32.1663 41.145 32.341 43.4215 32.3955C46.8701 32.4779 46.1852 29.161 48.3651 26.8875C48.0514 28.7085 47.956 31.6412 48.2833 33.5038C43.7129 33.8503 37.5848 34.1225 32.8402 34.7617C33.372 33.9068 34.5754 32.9593 36.5886 32.5838Z" fill="white"/>
<path d="M88.8075 18.1171C86.3281 18.18 85.8743 18.4191 83.4898 17.0095C81.1052 15.6001 79.2626 14.9214 77.765 14.2134C82.3468 14.2806 86.3626 15.4749 88.8075 18.1171Z" fill="white"/>
<path d="M93.412 18.2103C90.7993 18.304 89.9621 17.6133 88.5005 16.5982C87.1348 15.6495 84.7876 14.7843 83.1922 14.0859C86.2587 14.5371 90.7775 15.903 93.412 18.2103Z" fill="white"/>
<path d="M99.2227 24.9729C100.176 24.7724 101.181 24.266 101.199 23.5516C101.24 21.9208 100.425 20.4494 99.3209 19.0453C101.18 19.4736 103 22.1892 103.278 26.2937C102.497 25.3452 100.827 24.9667 99.2227 24.9729Z" fill="white"/>
<path d="M28.179 19.6664C27.7518 20.0412 27.2057 20.5748 26.8847 20.6517C26.2702 20.7988 25.4779 20.9094 24.9039 21.1284C24.4128 21.3157 23.7895 22.1429 23.3033 22.5902C23.7005 20.8667 25.0842 19.7457 28.179 19.6664Z" fill="white"/>
<path d="M73.8131 69.746L60.9241 92.5003L49.102 71.6276L45.0286 71.9377L60.9241 100L78.2543 69.4086L73.8131 69.746ZM4.28169 0L18.311 24.7726C18.311 24.7726 18.3244 24.7486 18.3511 24.7077C18.5586 24.3668 19.5986 22.7578 21.0735 22.1409C21.0167 22.0384 20.9598 21.9397 20.903 21.8408C20.8159 21.6908 20.7323 21.5409 20.6487 21.3908C20.5484 21.217 20.4513 21.0432 20.351 20.8692C20.2407 20.6716 20.1304 20.4772 20.02 20.2796C19.8963 20.0647 19.7759 19.8499 19.6521 19.6352C19.5217 19.4001 19.3879 19.1682 19.2575 18.9364C19.1171 18.6875 18.9765 18.4387 18.8361 18.19C18.6855 17.9308 18.5384 17.6684 18.3913 17.4058C18.2375 17.1365 18.0837 16.8638 17.9299 16.591C17.7694 16.3115 17.6121 16.0286 17.4516 15.7491C17.291 15.4628 17.1271 15.1764 16.9667 14.8901C16.7995 14.5968 16.6355 14.3071 16.4717 14.0174C16.3045 13.7242 16.1407 13.4311 15.9734 13.1379C15.8062 12.8448 15.6423 12.5516 15.475 12.2619C15.3112 11.972 15.1473 11.6822 14.9835 11.3925C14.8229 11.1061 14.6624 10.8199 14.4986 10.5368C14.3413 10.2575 14.1843 9.97775 14.027 9.7017C13.8732 9.43249 13.7226 9.16312 13.5688 8.89374C13.425 8.63821 13.2779 8.379 13.1308 8.12347C12.9936 7.87795 12.8565 7.63593 12.7194 7.39057C12.589 7.16206 12.4586 6.93372 12.3314 6.70538C12.2111 6.49738 12.094 6.28604 11.9735 6.07805C11.8667 5.88707 11.7595 5.69959 11.6525 5.50878C11.5589 5.34165 11.4619 5.17468 11.3683 5.00772C11.2881 4.86461 11.2077 4.72483 11.1274 4.58156C11.0606 4.46563 10.9971 4.34971 10.9302 4.23378C10.8834 4.14872 10.8332 4.06332 10.7829 3.97825C10.753 3.92354 10.7229 3.86917 10.6928 3.81462C10.6793 3.79077 10.6694 3.77026 10.6559 3.74974H111.192L102.952 18.3024C103.842 19.274 104.567 20.5523 105.079 22.0453L117.566 0H4.28169V0Z" fill="#FFC513"/>
<path d="M8.09374 50.782L11.706 50.5076V62.4387L8.09374 62.7131V58.1792L3.61193 58.5195V63.0533L0 63.3277V51.3966L3.61193 51.1222V55.2473L8.09374 54.9065V50.782Z" fill="white"/>
<path d="M16.5542 62.0704C14.2633 62.2443 13.1763 61.2532 13.1763 58.8839V53.8386C13.1763 51.4695 14.2633 50.3131 16.5542 50.1391L22.0059 49.7251C24.2969 49.5511 25.3838 50.5424 25.3838 52.9116V57.9568C25.3838 60.326 24.2969 61.4821 22.0059 61.6562L16.5542 62.0704ZM20.7015 58.6365C21.4875 58.5768 21.7719 58.2826 21.7719 57.4645V53.9532C21.7719 53.1351 21.4875 52.8839 20.7015 52.9436L17.8585 53.1595C17.0559 53.2203 16.7883 53.5134 16.7883 54.3315V57.8428C16.7883 58.6609 17.0559 58.9133 17.8585 58.8524L20.7015 58.6365Z" fill="white"/>
<path d="M35.4333 60.6367L34.7811 58.8283L29.9817 59.193L29.3296 61.1004L25.5167 61.39L30.4331 49.0853L34.5302 48.7742L39.4301 60.3333L35.4333 60.6367ZM33.8279 48.2138L31.169 48.4156L29.1456 46.3877L32.6406 46.1221L33.8279 48.2138ZM30.8848 56.5848L33.878 56.3574L32.3897 52.2434L30.8848 56.5848Z" fill="white"/>
<path d="M48.7601 47.6936L52.2384 47.4294V59.3605L49.3288 59.5816L43.6765 53.2952V60.0108L40.1981 60.275V48.3439L43.2582 48.1114L48.7601 54.2216V47.6936Z" fill="white"/>
<path d="M53.709 50.7606C53.709 48.3914 54.796 47.235 57.0871 47.0611L62.5382 46.6472C64.8295 46.4731 65.9167 47.4644 65.9167 49.8335V50.703L62.3044 50.9774V50.7219C62.3044 49.9036 62.0369 49.6511 61.2342 49.7121L58.3914 49.9279C57.5886 49.9888 57.3211 50.2819 57.3211 51.1V55.1225C57.3211 55.9236 57.5886 56.193 58.3914 56.1321L61.3679 55.9061C62.1706 55.8452 62.4383 55.535 62.4383 54.734V54.274L59.8296 54.4721V52.0689L65.9167 51.6068V54.8791C65.9167 57.2486 64.8295 58.4047 62.5382 58.5788L57.0871 58.9928C54.796 59.1668 53.709 58.1755 53.709 55.8063V50.7606Z" fill="white"/>
<path d="M75.9986 54.3005L81.8181 53.8587V57.1142L72.3867 57.8304V45.8991L75.9986 45.6249V54.3005Z" fill="white"/>
<path d="M85.998 56.7966C83.7069 56.9706 82.6198 55.9795 82.6198 53.6101V48.5649C82.6198 46.1957 83.7069 45.0393 85.998 44.8653L91.4495 44.4513C93.7406 44.2774 94.8276 45.2686 94.8276 47.6378V52.6831C94.8276 55.0522 93.7406 56.2086 91.4495 56.3826L85.998 56.7966ZM90.1452 53.3624C90.9311 53.303 91.2155 53.0085 91.2155 52.1903V48.6791C91.2155 47.861 90.9311 47.61 90.1452 47.6695L87.3023 47.8855C86.4997 47.9464 86.2322 48.2394 86.2322 49.0576V52.5688C86.2322 53.3869 86.4997 53.6393 87.3023 53.5784L90.1452 53.3624Z" fill="white"/>
<path d="M104.843 43.4342L108.322 43.17V55.1011L105.412 55.3221L99.7598 49.0359V55.7514L96.2814 56.0157V44.0844L99.3417 43.852L104.843 49.9623V43.4342Z" fill="white"/>
<path d="M109.792 46.5014C109.792 44.1323 110.879 42.9759 113.17 42.8019L118.622 42.3879C120.913 42.2139 122 43.205 122 45.5744V46.4437L118.388 46.7181V46.4624C118.388 45.6443 118.12 45.3919 117.318 45.4528L114.475 45.6688C113.672 45.7297 113.405 46.0227 113.405 46.8409V50.8633C113.405 51.6644 113.672 51.9338 114.475 51.8729L117.451 51.6469C118.254 51.586 118.522 51.2758 118.522 50.4748V50.0147L115.913 50.2128V47.8096L122 47.3474V50.62C122 52.9891 120.913 54.1455 118.622 54.3195L113.17 54.7336C110.879 54.9076 109.792 53.9163 109.792 51.5472V46.5014Z" fill="white"/>
<path d="M36.8514 63.4868C38.588 63.3549 39.6572 63.4219 40.059 63.688C40.4106 63.9153 40.5865 64.578 40.5865 65.6765L38.7044 65.8193C38.7044 65.4608 38.6116 65.239 38.426 65.1544C38.1934 65.0507 37.6684 65.0298 36.8514 65.0919C35.9373 65.1613 35.4012 65.274 35.2435 65.43C35.0856 65.5859 35.0067 66.0493 35.0067 66.8201C35.0067 67.5823 35.0856 68.0302 35.2435 68.1638C35.4012 68.2972 35.9373 68.3291 36.8514 68.2597C37.6795 68.1968 38.1968 68.1067 38.4031 67.9893C38.6095 67.872 38.7127 67.6255 38.7127 67.2501L40.5865 67.1078C40.5865 68.2115 40.4162 68.9008 40.0755 69.1751C39.6739 69.4993 38.599 69.7276 36.8514 69.8604C35.1036 69.9932 34.0468 69.912 33.6813 69.6162C33.3155 69.3208 33.1328 68.4333 33.1328 66.9538C33.1328 65.48 33.3087 64.5732 33.6605 64.2329C34.0398 63.8683 35.1036 63.6196 36.8514 63.4868Z" fill="#FFC513"/>
<path d="M44.2803 63.0199L47.496 62.7756L50.5084 68.7385L48.3229 68.9045L47.7454 67.9151L44.0351 68.1968L43.4534 69.2743L41.2679 69.4401L44.2803 63.0199ZM46.0336 64.2801L45.7428 64.3021L44.7332 66.5387L47.0392 66.3635L46.0336 64.2801Z" fill="#FFC513"/>
<path d="M51.3479 62.4747L56.7948 62.061C57.4623 62.0103 57.936 62.0987 58.2158 62.3259C58.5151 62.5741 58.6645 63.04 58.6645 63.7233C58.6645 64.2542 58.602 64.6512 58.4775 64.9149C58.3528 65.1785 58.1355 65.3855 57.8252 65.5362C58.1631 65.663 58.3875 65.7969 58.4981 65.9382C58.609 66.0797 58.6645 66.3435 58.6645 66.7303V68.1194L56.7948 68.2614V67.152C56.7948 66.9909 56.7519 66.8586 56.666 66.7552C56.558 66.6167 56.3959 66.5554 56.1799 66.5717L53.2217 66.7964V68.5327L51.3479 68.6752V62.4747V62.4747ZM53.2217 63.9375V65.1953L56.2255 64.9673C56.4278 64.952 56.5731 64.8957 56.6618 64.7985C56.7506 64.7014 56.7948 64.5343 56.7948 64.2971C56.7948 64.0599 56.749 63.8991 56.6577 63.8141C56.5662 63.7293 56.4222 63.6943 56.2255 63.7093L53.2217 63.9375Z" fill="#FFC513"/>
<path d="M66.8564 66.0995C67.7566 66.0313 68.2781 65.9777 68.421 65.9384C68.5635 65.8993 68.6348 65.7809 68.6348 65.5833C68.6348 65.3461 68.5353 65.2048 68.3357 65.1593C68.1364 65.1137 67.6434 65.1209 66.8566 65.1804C65.2944 65.2992 64.3091 65.2582 63.9005 65.0578C63.4921 64.8574 63.2879 64.3011 63.2879 63.389C63.2879 62.5447 63.5551 61.984 64.0897 61.7061C64.4968 61.4946 65.4038 61.3355 66.8111 61.2285C68.0657 61.1333 68.8606 61.1081 69.1958 61.1533C69.9825 61.2544 70.3757 61.9066 70.3757 63.1093L68.506 63.2513C68.506 62.921 68.4352 62.7342 68.2941 62.6915C68.1529 62.6488 67.6612 62.6591 66.819 62.723C65.9743 62.7872 65.4868 62.8396 65.3565 62.8807C65.2263 62.9215 65.1613 63.0438 65.1613 63.2469C65.1613 63.4614 65.2721 63.592 65.4937 63.6389C65.7152 63.6855 66.1696 63.6829 66.8564 63.6306C68.3993 63.5135 69.3929 63.5623 69.8375 63.7768C70.2821 63.9915 70.5045 64.5464 70.5045 65.4413C70.5045 66.2688 70.2551 66.817 69.7567 67.0863C69.3244 67.3168 68.3552 67.4892 66.8482 67.6036C65.685 67.6921 64.9301 67.7222 64.5839 67.6952C64.0491 67.6539 63.6858 67.4924 63.4932 67.2107C63.3006 66.9288 63.2044 66.4194 63.2044 65.6825L65.0784 65.5402C65.0784 65.8875 65.1515 66.0845 65.2985 66.1312C65.4452 66.1775 65.9646 66.1672 66.8564 66.0995Z" fill="#FFC513"/>
<path d="M71.9671 60.909L76.5456 60.5614C77.5428 60.4855 78.2005 60.5597 78.5192 60.7842C78.9154 61.0588 79.1136 61.7003 79.1136 62.7082C79.1136 63.7077 78.9182 64.3747 78.5276 64.7093C78.2036 64.9908 77.5428 65.1695 76.5458 65.2452L73.841 65.4505V66.9667L71.9673 67.109V60.909H71.9671ZM73.841 63.8454L76.5458 63.6403C76.7673 63.6231 76.9349 63.561 77.0485 63.4536C77.1841 63.3275 77.252 63.1264 77.252 62.8495C77.252 62.5758 77.1841 62.3831 77.0485 62.272C76.9349 62.1848 76.7672 62.1494 76.5458 62.1663L73.841 62.3716V63.8454Z" fill="#FFC513"/>
<path d="M82.7656 60.0972L85.9815 59.8528L88.9936 65.8158L86.8084 65.9817L86.2309 64.9921L82.5206 65.2739L81.9389 66.3514L79.7534 66.5172L82.7656 60.0972ZM84.5189 61.3573L84.2282 61.3795L83.2184 63.6161L85.5245 63.4409L84.5189 61.3573Z" fill="#FFC513"/>
</svg>
